<?xml version="1.0" encoding="UTF-8"?>
<svg width="40px" height="56px" viewBox="0 0 80 111" version="1.1" xmlns="http://www.w3.org/2000/svg" xmlns:xlink="http://www.w3.org/1999/xlink">
    <title>Button</title>
    <g id="组件骨架图更新_202311" stroke="none" stroke-width="1" fill="none" fill-rule="evenodd">
        <g id="🎉-5.0-新版---白" transform="translate(-214.000000, -424.000000)">
            <g id="Button" transform="translate(214.000000, 424.000000)">
                <rect id="矩形" fill="#1677FF" x="0" y="0" width="79" height="31" rx="6"></rect>
                <g id="编组" transform="translate(15.000000, 9.000000)" fill="#FFFFFF" fill-opacity="0.88" fill-rule="nonzero">
                    <rect id="矩形备份-11备份-21" x="48" y="0" width="1" height="14"></rect>
                    <rect id="矩形备份-11备份-20" x="45" y="0" width="1" height="14"></rect>
                    <rect id="矩形备份-11备份-19" x="42" y="0" width="1" height="14"></rect>
                    <rect id="矩形备份-11备份-3" x="39" y="0" width="1" height="14"></rect>
                    <rect id="矩形备份-10备份" x="36" y="0" width="1" height="14"></rect>
                    <rect id="矩形备份-11" x="33" y="0" width="1" height="14"></rect>
                    <rect id="矩形备份-10" x="30" y="0" width="1" height="14"></rect>
                    <rect id="矩形备份-9" x="27" y="0" width="1" height="14"></rect>
                    <rect id="矩形备份-8" x="24" y="0" width="1" height="14"></rect>
                    <rect id="矩形备份-7" x="21" y="0" width="1" height="14"></rect>
                    <rect id="矩形备份-6" x="18" y="0" width="1" height="14"></rect>
                    <rect id="矩形备份-5" x="15" y="0" width="1" height="14"></rect>
                    <rect id="矩形备份-4" x="12" y="0" width="1" height="14"></rect>
                    <rect id="矩形备份-3" x="9" y="0" width="1" height="14"></rect>
                    <rect id="矩形备份-2" x="6" y="0" width="1" height="14"></rect>
                    <rect id="矩形备份" x="3" y="0" width="1" height="14"></rect>
                    <rect id="矩形" x="0" y="0" width="1" height="14"></rect>
                </g>
                <rect id="矩形" fill="#FFFFFF" fill-rule="nonzero" x="1" y="40" width="78" height="30" rx="6"></rect>
                <rect id="矩形" stroke="#000000" opacity="0.15" x="0.5" y="39.5" width="79" height="31" rx="6"></rect>
                <g id="编组备份-66" transform="translate(15.000000, 48.000000)" fill="#000000" fill-opacity="0.88" fill-rule="nonzero">
                    <rect id="矩形备份-11备份-21" x="48" y="0" width="1" height="14"></rect>
                    <rect id="矩形备份-11备份-20" x="45" y="0" width="1" height="14"></rect>
                    <rect id="矩形备份-11备份-19" x="42" y="0" width="1" height="14"></rect>
                    <rect id="矩形备份-11备份-3" x="39" y="0" width="1" height="14"></rect>
                    <rect id="矩形备份-10备份" x="36" y="0" width="1" height="14"></rect>
                    <rect id="矩形备份-11" x="33" y="0" width="1" height="14"></rect>
                    <rect id="矩形备份-10" x="30" y="0" width="1" height="14"></rect>
                    <rect id="矩形备份-9" x="27" y="0" width="1" height="14"></rect>
                    <rect id="矩形备份-8" x="24" y="0" width="1" height="14"></rect>
                    <rect id="矩形备份-7" x="21" y="0" width="1" height="14"></rect>
                    <rect id="矩形备份-6" x="18" y="0" width="1" height="14"></rect>
                    <rect id="矩形备份-5" x="15" y="0" width="1" height="14"></rect>
                    <rect id="矩形备份-4" x="12" y="0" width="1" height="14"></rect>
                    <rect id="矩形备份-3" x="9" y="0" width="1" height="14"></rect>
                    <rect id="矩形备份-2" x="6" y="0" width="1" height="14"></rect>
                    <rect id="矩形备份" x="3" y="0" width="1" height="14"></rect>
                    <rect id="矩形" x="0" y="0" width="1" height="14"></rect>
                </g>
                <g id="编组" transform="translate(0.500000, 79.500000)" stroke="#F5222D">
                    <rect id="矩形" x="0" y="0" width="79" height="31" rx="6"></rect>
                </g>
                <g id="编组备份-66" transform="translate(16.000000, 88.000000)" fill="#F5222D" fill-rule="nonzero">
                    <rect id="矩形备份-11备份-21" x="48" y="0" width="1" height="14"></rect>
                    <rect id="矩形备份-11备份-20" x="45" y="0" width="1" height="14"></rect>
                    <rect id="矩形备份-11备份-19" x="42" y="0" width="1" height="14"></rect>
                    <rect id="矩形备份-11备份-3" x="39" y="0" width="1" height="14"></rect>
                    <rect id="矩形备份-10备份" x="36" y="0" width="1" height="14"></rect>
                    <rect id="矩形备份-11" x="33" y="0" width="1" height="14"></rect>
                    <rect id="矩形备份-10" x="30" y="0" width="1" height="14"></rect>
                    <rect id="矩形备份-9" x="27" y="0" width="1" height="14"></rect>
                    <rect id="矩形备份-8" x="24" y="0" width="1" height="14"></rect>
                    <rect id="矩形备份-7" x="21" y="0" width="1" height="14"></rect>
                    <rect id="矩形备份-6" x="18" y="0" width="1" height="14"></rect>
                    <rect id="矩形备份-5" x="15" y="0" width="1" height="14"></rect>
                    <rect id="矩形备份-4" x="12" y="0" width="1" height="14"></rect>
                    <rect id="矩形备份-3" x="9" y="0" width="1" height="14"></rect>
                    <rect id="矩形备份-2" x="6" y="0" width="1" height="14"></rect>
                    <rect id="矩形备份" x="3" y="0" width="1" height="14"></rect>
                    <rect id="矩形" x="0" y="0" width="1" height="14"></rect>
                </g>
            </g>
        </g>
    </g>
</svg>
